# xmcd
#
# Track frame offsets:
#	150
#	14835
#	23932
#	38300
#	49012
#	61705
#	75520
#	86502
#	108902
#	127135
#	142195
#	159497
#	165545
#	185300
#	197390
#	209567
#	220765
#	234827
#	251712
#	269140
#	284587
#	303322
#	316480
#
# Disc length: 4391 seconds
#
# Revision: 1
# Processed by: cddbd v1.5.1PL0 Copyright (c) Steve Scherf et al.
# Submitted via: CDex 1.50Beta5
#
DISCID=45112517
DTITLE=Various Artist - 超空想リングサイドー格闘チャンピオン・マッチー
DYEAR=2003
DGENRE=Soundtrack
TTITLE0=アントニオ・ドライバーズ・スペシャル/炎のファイター〈アントニオ猪木のテーマ〉
TTITLE1=新田洋/タイガーマスク
TTITLE2=水木一郎/タイガーマスク二世
TTITLE3=Mojo/燃える闘魂〜アントニオ猪木〜
TTITLE4=水木一郎/吠えろ！虎
TTITLE5=子門真人、コロムビアゆりかご会/カモン！アステカイザー
TTITLE6=沢村忠、少年少女合唱団みずうみ/キックの鬼
TTITLE7=おぼたけし/あしたのジョー〜美しき狼たち〜
TTITLE8=ジョー山中/「あしたのジョー2」のテーマ〜明日への叫び〜
TTITLE9=堀欣也、こおろぎ`73、ザ・チャーブス/風になれ！
TTITLE10=Mojo/青春ジャングル
TTITLE11=今堀恒雄/Tumbling Dice(New Opening Theme)
TTITLE12=木村昇、Talizman/シーズン
TTITLE13=水木一郎、コロムビア男声合唱団/柔道一直線
TTITLE14=堀江美都子、コロムビアゆりかご会/紅三四郎
TTITLE15=子門真人/柔道讃歌
TTITLE16=串田アキラ/キン肉マンGo Fight!
TTITLE17=織田純一郎/輝け！ラーメンマン
TTITLE18=鈴木けんじ/ズダダン！キン肉マン
TTITLE19=大安蓮、パイオニア児童合唱団/空手バカ一代
TTITLE20=石川優子/ドリーミー・ドリーマー
TTITLE21=クリスタルキング/愛をとりもどせ!!
TTITLE22=新田洋/みなしごのバラード
EXTD=
EXTT0=
EXTT1=
EXTT2=
EXTT3=
EXTT4=
EXTT5=
EXTT6=
EXTT7=
EXTT8=
EXTT9=
EXTT10=
EXTT11=
EXTT12=
EXTT13=
EXTT14=
EXTT15=
EXTT16=
EXTT17=
EXTT18=
EXTT19=
EXTT20=
EXTT21=
EXTT22=
PLAYORDER=
